<svg width="580" height="400" xmlns="http://www.w3.org/2000/svg">
 <!-- Created with Method Draw - http://github.com/duopixel/Method-Draw/ -->
 <g>
  <title>background</title>
  <rect fill="#fff" id="canvas_background" height="402" width="582" y="-1" x="-1"/>
  <g display="none" overflow="visible" y="0" x="0" height="100%" width="100%" id="canvasGrid">
   <rect fill="url(#gridpattern)" stroke-width="0" y="0" x="0" height="100%" width="100%"/>
  </g>
 </g>
 <g>
  <title>Layer 1</title>
  <rect id="svg_1" height="270" width="411" y="64.449997" x="84.5" stroke-width="1.5" stroke="#000" fill="#C97A86"/>
  <text transform="matrix(1.8483, 0, 0, 3.19674, -118.014, -172.314)" xml:space="preserve" text-anchor="start" font-family="'Palatino Linotype', 'Book Antiqua', Palatino, serif" font-size="24" id="svg_2" y="104.98747" x="131.733212" stroke-width="0" stroke="#000" fill="#ffffff">Reaction</text>
  <text transform="matrix(2.48447, 0, 0, 3.71225, -305.203, -267.902)" xml:space="preserve" text-anchor="start" font-family="'Palatino Linotype', 'Book Antiqua', Palatino, serif" font-size="24" id="svg_4" y="136.296029" x="244.248974" stroke-width="0" stroke="#000" fill="#ffffff">Tester</text>
  <ellipse ry="36" rx="40" id="svg_5" cy="272.449997" cx="204.5" stroke-opacity="null" stroke-width="1.5" stroke="#000" fill="#000000"/>
  <rect id="svg_6" height="49" width="56" y="259.449997" x="395.5" stroke-opacity="null" stroke-width="1.5" stroke="#000" fill="#000000"/>
  <ellipse ry="10" rx="7" id="svg_7" cy="174.449997" cx="101.5" stroke-opacity="null" stroke-width="1.5" stroke="#000" fill="#000000"/>
  <ellipse ry="9" rx="10" id="svg_8" cy="96.449997" cx="470.5" stroke-opacity="null" stroke-width="1.5" stroke="#000" fill="#000000"/>
  <ellipse ry="8.5" rx="7.5" id="svg_9" cy="283.949997" cx="324" stroke-opacity="null" stroke-width="1.5" stroke="#000" fill="#000000"/>
  <ellipse ry="7.5" rx="5.5" id="svg_10" cy="84.949997" cx="356" stroke-opacity="null" stroke-width="1.5" stroke="#000" fill="#000000"/>
  <ellipse ry="3.5" rx="10" id="svg_11" cy="84.949997" cx="118.5" stroke-opacity="null" stroke-width="1.5" stroke="#000" fill="#000000"/>
  <ellipse ry="13" rx="9" id="svg_12" cy="296.449997" cx="113.5" stroke-opacity="null" stroke-width="1.5" stroke="#000" fill="#000000"/>
  <ellipse ry="7.5" rx="4" id="svg_13" cy="203.949997" cx="265.5" stroke-opacity="null" stroke-width="1.5" stroke="#000" fill="#000000"/>
  <ellipse ry="11.5" rx="9" id="svg_14" cy="169.949997" cx="456.5" stroke-opacity="null" stroke-width="1.5" stroke="#000" fill="#000000"/>
  <ellipse ry="11" rx="12.5" id="svg_15" cy="221.449997" cx="199" stroke-opacity="null" stroke-width="1.5" stroke="#000" fill="#000000"/>
  <ellipse ry="8.5" rx="10.5" id="svg_16" cy="93.949997" cx="293" stroke-opacity="null" stroke-width="1.5" stroke="#000" fill="#000000"/>
  <ellipse ry="7.5" rx="5" id="svg_17" cy="211.949997" cx="124.5" stroke-opacity="null" stroke-width="1.5" stroke="#000" fill="#000000"/>
  <ellipse ry="1.5" rx="5.5" id="svg_18" cy="324.949997" cx="269" stroke-opacity="null" stroke-width="1.5" stroke="#000" fill="#000000"/>
  <ellipse ry="13.5" rx="12" id="svg_19" cy="310.949997" cx="365.5" stroke-opacity="null" stroke-width="1.5" stroke="#000" fill="#000000"/>
  <ellipse ry="0.5" rx="0.5" id="svg_20" cy="212.949997" cx="241" stroke-opacity="null" stroke-width="1.5" stroke="#000" fill="#000000"/>
  <rect id="svg_21" height="7" width="3" y="141.449997" x="426.5" stroke-opacity="null" stroke-width="1.5" stroke="#000" fill="#000000"/>
  <rect id="svg_22" height="23" width="13" y="120.449997" x="372.5" stroke-opacity="null" stroke-width="1.5" stroke="#000" fill="#000000"/>
  <rect id="svg_23" height="6" width="11" y="142.449997" x="311.5" stroke-opacity="null" stroke-width="1.5" stroke="#000" fill="#000000"/>
  <rect id="svg_24" height="10" width="14" y="237.449997" x="276.5" stroke-opacity="null" stroke-width="1.5" stroke="#000" fill="#000000"/>
  <rect id="svg_25" height="33" width="27" y="248.449997" x="133.5" stroke-opacity="null" stroke-width="1.5" stroke="#000" fill="#000000"/>
  <rect id="svg_26" height="6" width="8" y="323.449997" x="152.5" stroke-opacity="null" stroke-width="1.5" stroke="#000" fill="#000000"/>
  <rect id="svg_27" height="10" width="16" y="75.449997" x="180.5" stroke-opacity="null" stroke-width="1.5" stroke="#000" fill="#000000"/>
  <rect id="svg_28" height="11" width="10" y="111.449997" x="90.5" stroke-opacity="null" stroke-width="1.5" stroke="#000" fill="#000000"/>
 </g>
</svg>