<svg width="580" height="400" xmlns="http://www.w3.org/2000/svg">
 <!-- Created with Method Draw - http://github.com/duopixel/Method-Draw/ -->
 <g>
  <title>background</title>
  <rect fill="#fff" id="canvas_background" height="402" width="582" y="-1" x="-1"/>
 </g>
 <g>
  <title>Layer 1</title>
  <rect id="svg_1" height="181.000009" width="444.000006" y="116.449995" x="79.499996" stroke-opacity="null" stroke-width="1.5" stroke="#000" fill="#999999"/>
  <path d="m152.49942,210.882355c0.204834,0 0.371002,0.112061 0.371002,0.250046c0,0.138 -0.166168,0.249939 -0.371002,0.249939c-0.204834,0 -0.371002,0.112061 -0.371002,0.250046c0,0.138 0.166168,0.249939 0.371002,0.249939c0.409668,0 0.742172,-0.223999 0.742172,-0.499985c0,-0.275986 -0.332504,-0.499985 -0.742172,-0.499985zm0,0.171906c-0.064041,0 -0.115997,0.035004 -0.115997,0.07814c0,0.043152 0.051956,0.07814 0.115997,0.07814c0.064041,0 0.115982,-0.034988 0.115982,-0.07814c0,-0.043137 -0.051941,-0.07814 -0.115982,-0.07814zm0,0.499985c0.064011,0 0.115982,0.035019 0.115982,0.07814c0,0.043121 -0.051971,0.07814 -0.115982,0.07814c-0.064011,0 -0.115997,-0.035019 -0.115997,-0.07814c0,-0.043121 0.051987,-0.07814 0.115997,-0.07814zm0.725525,-0.171585c0,0.275787 -0.331863,0.499344 -0.741226,0.499344c-0.409348,0 -0.741211,-0.223557 -0.741211,-0.499344c0,-0.275787 0.331863,-0.499344 0.741211,-0.499344c0.409363,0 0.741226,0.223557 0.741226,0.499344z"/>
  <path id="svg_4" d="m150.943832,158.654312c12.706909,0 23.016159,11.542587 23.016159,25.756271c0,14.213593 -10.30925,25.744415 -23.016159,25.744415c-12.707474,0 -23.016571,11.541595 -23.016571,25.756012c0,14.213379 10.309097,25.743317 23.016571,25.743317c25.414658,0 46.042511,-23.072433 46.042511,-51.499329c0,-28.427628 -20.627853,-51.500687 -46.042511,-51.500687zm0,17.706757c-3.973511,0 -7.195801,3.605438 -7.195801,8.049515c0,4.443863 3.22229,8.047714 7.195801,8.047714c3.972977,0 7.195679,-3.603851 7.195679,-8.047714c0,-4.444077 -3.222702,-8.049515 -7.195679,-8.049515zm0,51.50061c3.971359,0 7.195679,3.606796 7.195679,8.049332c0,4.441635 -3.224319,8.047989 -7.195679,8.047989c-3.971024,0 -7.195801,-3.606354 -7.195801,-8.047989c0,-4.442535 3.224777,-8.049332 7.195801,-8.049332zm45.010391,-17.674011c0,28.40625 -20.587845,51.433151 -45.983963,51.433151c-25.396118,0 -45.98391,-23.026901 -45.98391,-51.433151c0,-28.40683 20.587791,-51.433441 45.98391,-51.433441c25.396118,0 45.983963,23.026611 45.983963,51.433441z" stroke-opacity="null" stroke-width="1.5" stroke="#000" fill="#000000"/>
  <text transform="matrix(1.80916, 0, 0, 3.53572, -201.077, -448.813)" xml:space="preserve" text-anchor="start" font-family="'Shadows Into Light', serif" font-size="24" id="svg_5" y="193.924746" x="235.234209" stroke-opacity="null" stroke-width="0" stroke="#000" fill="#000000">SHANTIKUNJ</text>
 </g>
</svg>